<?xml version="1.0" encoding="UTF-8" ?>
<svg version="1.1" width="256" height="256" xmlns="http://www.w3.org/2000/svg" shape-rendering="crispEdges">
<rect x="112" y="16" width="16" height="16" fill="#FF4242" />
<rect x="128" y="16" width="16" height="16" fill="#FF4242" />
<rect x="144" y="16" width="16" height="16" fill="#FF4242" />
<rect x="48" y="32" width="16" height="16" fill="#FF4242" />
<rect x="64" y="32" width="16" height="16" fill="#FF4242" />
<rect x="80" y="32" width="16" height="16" fill="#FF4242" />
<rect x="112" y="32" width="16" height="16" fill="#FF4242" />
<rect x="144" y="32" width="16" height="16" fill="#FF4242" />
<rect x="48" y="48" width="16" height="16" fill="#FF4242" />
<rect x="80" y="48" width="16" height="16" fill="#FF4242" />
<rect x="112" y="48" width="16" height="16" fill="#FF4242" />
<rect x="144" y="48" width="16" height="16" fill="#FF4242" />
<rect x="32" y="64" width="16" height="16" fill="#FFF1E8" />
<rect x="48" y="64" width="16" height="16" fill="#FFF1E8" />
<rect x="64" y="64" width="16" height="16" fill="#FFF1E8" />
<rect x="80" y="64" width="16" height="16" fill="#FFF1E8" />
<rect x="96" y="64" width="16" height="16" fill="#FFF1E8" />
<rect x="112" y="64" width="16" height="16" fill="#FFF1E8" />
<rect x="128" y="64" width="16" height="16" fill="#FFF1E8" />
<rect x="144" y="64" width="16" height="16" fill="#FFF1E8" />
<rect x="160" y="64" width="16" height="16" fill="#FFF1E8" />
<rect x="176" y="64" width="16" height="16" fill="#FFF1E8" />
<rect x="32" y="80" width="16" height="16" fill="#FFF1E8" />
<rect x="176" y="80" width="16" height="16" fill="#FFF1E8" />
<rect x="32" y="96" width="16" height="16" fill="#FFF1E8" />
<rect x="144" y="96" width="16" height="16" fill="#FFCF29" />
<rect x="176" y="96" width="16" height="16" fill="#FFF1E8" />
<rect x="32" y="112" width="16" height="16" fill="#FFF1E8" />
<rect x="144" y="112" width="16" height="16" fill="#FFCF29" />
<rect x="176" y="112" width="16" height="16" fill="#FFF1E8" />
<rect x="32" y="128" width="16" height="16" fill="#FFF1E8" />
<rect x="64" y="128" width="16" height="16" fill="#FFF1E8" />
<rect x="96" y="128" width="16" height="16" fill="#FFF1E8" />
<rect x="176" y="128" width="16" height="16" fill="#FFF1E8" />
<rect x="192" y="128" width="16" height="16" fill="#FFCF29" />
<rect x="208" y="128" width="16" height="16" fill="#FFCF29" />
<rect x="32" y="144" width="16" height="16" fill="#FFF1E8" />
<rect x="64" y="144" width="16" height="16" fill="#FFF1E8" />
<rect x="96" y="144" width="16" height="16" fill="#FFF1E8" />
<rect x="176" y="144" width="16" height="16" fill="#FFF1E8" />
<rect x="208" y="144" width="16" height="16" fill="#FFCF29" />
<rect x="32" y="160" width="16" height="16" fill="#FFF1E8" />
<rect x="64" y="160" width="16" height="16" fill="#FFF1E8" />
<rect x="80" y="160" width="16" height="16" fill="#FFF1E8" />
<rect x="96" y="160" width="16" height="16" fill="#FFF1E8" />
<rect x="176" y="160" width="16" height="16" fill="#FFF1E8" />
<rect x="192" y="160" width="16" height="16" fill="#FFCF29" />
<rect x="208" y="160" width="16" height="16" fill="#FFCF29" />
<rect x="32" y="176" width="16" height="16" fill="#FFF1E8" />
<rect x="176" y="176" width="16" height="16" fill="#FFF1E8" />
<rect x="32" y="192" width="16" height="16" fill="#FFF1E8" />
<rect x="48" y="192" width="16" height="16" fill="#FFF1E8" />
<rect x="64" y="192" width="16" height="16" fill="#FFF1E8" />
<rect x="80" y="192" width="16" height="16" fill="#FFF1E8" />
<rect x="96" y="192" width="16" height="16" fill="#FFF1E8" />
<rect x="112" y="192" width="16" height="16" fill="#FFF1E8" />
<rect x="128" y="192" width="16" height="16" fill="#FFF1E8" />
<rect x="144" y="192" width="16" height="16" fill="#FFF1E8" />
<rect x="160" y="192" width="16" height="16" fill="#FFF1E8" />
<rect x="176" y="192" width="16" height="16" fill="#FFF1E8" />
<rect x="80" y="208" width="16" height="16" fill="#FFF1E8" />
<rect x="128" y="208" width="16" height="16" fill="#FFF1E8" />
<rect x="80" y="224" width="16" height="16" fill="#FFF1E8" />
<rect x="128" y="224" width="16" height="16" fill="#FFF1E8" />
</svg>