<?xml version="1.0" encoding="UTF-8" ?>
<svg version="1.1" width="288" height="288" xmlns="http://www.w3.org/2000/svg" shape-rendering="crispEdges">
<rect x="80" y="0" width="16" height="16" fill="#6B2C3B" />
<rect x="96" y="0" width="16" height="16" fill="#6B2C3B" />
<rect x="112" y="0" width="16" height="16" fill="#6B2C3B" />
<rect x="128" y="0" width="16" height="16" fill="#6B2C3B" />
<rect x="144" y="0" width="16" height="16" fill="#6B2C3B" />
<rect x="160" y="0" width="16" height="16" fill="#6B2C3B" />
<rect x="176" y="0" width="16" height="16" fill="#6B2C3B" />
<rect x="32" y="16" width="16" height="16" fill="#551826" />
<rect x="48" y="16" width="16" height="16" fill="#551826" />
<rect x="64" y="16" width="16" height="16" fill="#551826" />
<rect x="80" y="16" width="16" height="16" fill="#578A2F" />
<rect x="96" y="16" width="16" height="16" fill="#9FC97E" />
<rect x="112" y="16" width="16" height="16" fill="#9FC97E" />
<rect x="128" y="16" width="16" height="16" fill="#9FC97E" />
<rect x="144" y="16" width="16" height="16" fill="#9FC97E" />
<rect x="160" y="16" width="16" height="16" fill="#9FC97E" />
<rect x="176" y="16" width="16" height="16" fill="#578A2F" />
<rect x="192" y="16" width="16" height="16" fill="#551826" />
<rect x="208" y="16" width="16" height="16" fill="#551826" />
<rect x="224" y="16" width="16" height="16" fill="#551826" />
<rect x="240" y="16" width="16" height="16" fill="#551826" />
<rect x="32" y="32" width="16" height="16" fill="#551826" />
<rect x="48" y="32" width="16" height="16" fill="#75A64F" />
<rect x="64" y="32" width="16" height="16" fill="#75A64F" />
<rect x="80" y="32" width="16" height="16" fill="#578A2F" />
<rect x="96" y="32" width="16" height="16" fill="#9FC97E" />
<rect x="112" y="32" width="16" height="16" fill="#9FC97E" />
<rect x="128" y="32" width="16" height="16" fill="#9FC97E" />
<rect x="144" y="32" width="16" height="16" fill="#9FC97E" />
<rect x="160" y="32" width="16" height="16" fill="#9FC97E" />
<rect x="176" y="32" width="16" height="16" fill="#578A2F" />
<rect x="192" y="32" width="16" height="16" fill="#75A64F" />
<rect x="208" y="32" width="16" height="16" fill="#75A64F" />
<rect x="224" y="32" width="16" height="16" fill="#75A64F" />
<rect x="240" y="32" width="16" height="16" fill="#551826" />
<rect x="32" y="48" width="16" height="16" fill="#551826" />
<rect x="48" y="48" width="16" height="16" fill="#75A64F" />
<rect x="64" y="48" width="16" height="16" fill="#578A2F" />
<rect x="80" y="48" width="16" height="16" fill="#578A2F" />
<rect x="96" y="48" width="16" height="16" fill="#578A2F" />
<rect x="112" y="48" width="16" height="16" fill="#578A2F" />
<rect x="128" y="48" width="16" height="16" fill="#578A2F" />
<rect x="144" y="48" width="16" height="16" fill="#578A2F" />
<rect x="160" y="48" width="16" height="16" fill="#9FC97E" />
<rect x="176" y="48" width="16" height="16" fill="#578A2F" />
<rect x="192" y="48" width="16" height="16" fill="#75A64F" />
<rect x="208" y="48" width="16" height="16" fill="#75A64F" />
<rect x="224" y="48" width="16" height="16" fill="#75A64F" />
<rect x="240" y="48" width="16" height="16" fill="#551826" />
<rect x="32" y="64" width="16" height="16" fill="#551826" />
<rect x="48" y="64" width="16" height="16" fill="#75A64F" />
<rect x="64" y="64" width="16" height="16" fill="#578A2F" />
<rect x="80" y="64" width="16" height="16" fill="#9FC97E" />
<rect x="96" y="64" width="16" height="16" fill="#9FC97E" />
<rect x="112" y="64" width="16" height="16" fill="#9FC97E" />
<rect x="128" y="64" width="16" height="16" fill="#9FC97E" />
<rect x="144" y="64" width="16" height="16" fill="#578A2F" />
<rect x="160" y="64" width="16" height="16" fill="#578A2F" />
<rect x="176" y="64" width="16" height="16" fill="#578A2F" />
<rect x="192" y="64" width="16" height="16" fill="#578A2F" />
<rect x="208" y="64" width="16" height="16" fill="#578A2F" />
<rect x="224" y="64" width="16" height="16" fill="#75A64F" />
<rect x="240" y="64" width="16" height="16" fill="#551826" />
<rect x="16" y="80" width="16" height="16" fill="#6B2C3B" />
<rect x="32" y="80" width="16" height="16" fill="#551826" />
<rect x="48" y="80" width="16" height="16" fill="#75A64F" />
<rect x="64" y="80" width="16" height="16" fill="#578A2F" />
<rect x="80" y="80" width="16" height="16" fill="#9FC97E" />
<rect x="96" y="80" width="16" height="16" fill="#75A64F" />
<rect x="112" y="80" width="16" height="16" fill="#75A64F" />
<rect x="128" y="80" width="16" height="16" fill="#9FC97E" />
<rect x="144" y="80" width="16" height="16" fill="#578A2F" />
<rect x="160" y="80" width="16" height="16" fill="#75A64F" />
<rect x="176" y="80" width="16" height="16" fill="#9FC97E" />
<rect x="192" y="80" width="16" height="16" fill="#9FC97E" />
<rect x="208" y="80" width="16" height="16" fill="#578A2F" />
<rect x="224" y="80" width="16" height="16" fill="#75A64F" />
<rect x="240" y="80" width="16" height="16" fill="#551826" />
<rect x="256" y="80" width="16" height="16" fill="#551826" />
<rect x="0" y="96" width="16" height="16" fill="#6B2C3B" />
<rect x="16" y="96" width="16" height="16" fill="#DB072F" />
<rect x="32" y="96" width="16" height="16" fill="#551826" />
<rect x="48" y="96" width="16" height="16" fill="#75A64F" />
<rect x="64" y="96" width="16" height="16" fill="#578A2F" />
<rect x="80" y="96" width="16" height="16" fill="#9FC97E" />
<rect x="96" y="96" width="16" height="16" fill="#9FC97E" />
<rect x="112" y="96" width="16" height="16" fill="#9FC97E" />
<rect x="128" y="96" width="16" height="16" fill="#9FC97E" />
<rect x="144" y="96" width="16" height="16" fill="#578A2F" />
<rect x="160" y="96" width="16" height="16" fill="#75A64F" />
<rect x="176" y="96" width="16" height="16" fill="#9FC97E" />
<rect x="192" y="96" width="16" height="16" fill="#9FC97E" />
<rect x="208" y="96" width="16" height="16" fill="#578A2F" />
<rect x="224" y="96" width="16" height="16" fill="#75A64F" />
<rect x="240" y="96" width="16" height="16" fill="#551826" />
<rect x="256" y="96" width="16" height="16" fill="#DB072F" />
<rect x="272" y="96" width="16" height="16" fill="#551826" />
<rect x="0" y="112" width="16" height="16" fill="#6B2C3B" />
<rect x="16" y="112" width="16" height="16" fill="#551826" />
<rect x="32" y="112" width="16" height="16" fill="#551826" />
<rect x="48" y="112" width="16" height="16" fill="#75A64F" />
<rect x="64" y="112" width="16" height="16" fill="#578A2F" />
<rect x="80" y="112" width="16" height="16" fill="#9FC97E" />
<rect x="96" y="112" width="16" height="16" fill="#75A64F" />
<rect x="112" y="112" width="16" height="16" fill="#9FC97E" />
<rect x="128" y="112" width="16" height="16" fill="#9FC97E" />
<rect x="144" y="112" width="16" height="16" fill="#578A2F" />
<rect x="160" y="112" width="16" height="16" fill="#75A64F" />
<rect x="176" y="112" width="16" height="16" fill="#9FC97E" />
<rect x="192" y="112" width="16" height="16" fill="#9FC97E" />
<rect x="208" y="112" width="16" height="16" fill="#578A2F" />
<rect x="224" y="112" width="16" height="16" fill="#75A64F" />
<rect x="240" y="112" width="16" height="16" fill="#551826" />
<rect x="256" y="112" width="16" height="16" fill="#551826" />
<rect x="272" y="112" width="16" height="16" fill="#551826" />
<rect x="0" y="128" width="16" height="16" fill="#6B2C3B" />
<rect x="16" y="128" width="16" height="16" fill="#DB072F" />
<rect x="32" y="128" width="16" height="16" fill="#551826" />
<rect x="48" y="128" width="16" height="16" fill="#75A64F" />
<rect x="64" y="128" width="16" height="16" fill="#578A2F" />
<rect x="80" y="128" width="16" height="16" fill="#9FC97E" />
<rect x="96" y="128" width="16" height="16" fill="#9FC97E" />
<rect x="112" y="128" width="16" height="16" fill="#9FC97E" />
<rect x="128" y="128" width="16" height="16" fill="#9FC97E" />
<rect x="144" y="128" width="16" height="16" fill="#578A2F" />
<rect x="160" y="128" width="16" height="16" fill="#75A64F" />
<rect x="176" y="128" width="16" height="16" fill="#9FC97E" />
<rect x="192" y="128" width="16" height="16" fill="#9FC97E" />
<rect x="208" y="128" width="16" height="16" fill="#578A2F" />
<rect x="224" y="128" width="16" height="16" fill="#75A64F" />
<rect x="240" y="128" width="16" height="16" fill="#551826" />
<rect x="256" y="128" width="16" height="16" fill="#DB072F" />
<rect x="272" y="128" width="16" height="16" fill="#551826" />
<rect x="0" y="144" width="16" height="16" fill="#6B2C3B" />
<rect x="16" y="144" width="16" height="16" fill="#DB072F" />
<rect x="32" y="144" width="16" height="16" fill="#DB072F" />
<rect x="48" y="144" width="16" height="16" fill="#551826" />
<rect x="64" y="144" width="16" height="16" fill="#578A2F" />
<rect x="80" y="144" width="16" height="16" fill="#9FC97E" />
<rect x="96" y="144" width="16" height="16" fill="#9FC97E" />
<rect x="112" y="144" width="16" height="16" fill="#9FC97E" />
<rect x="128" y="144" width="16" height="16" fill="#9FC97E" />
<rect x="144" y="144" width="16" height="16" fill="#578A2F" />
<rect x="160" y="144" width="16" height="16" fill="#75A64F" />
<rect x="176" y="144" width="16" height="16" fill="#9FC97E" />
<rect x="192" y="144" width="16" height="16" fill="#9FC97E" />
<rect x="208" y="144" width="16" height="16" fill="#578A2F" />
<rect x="224" y="144" width="16" height="16" fill="#551826" />
<rect x="240" y="144" width="16" height="16" fill="#DB072F" />
<rect x="256" y="144" width="16" height="16" fill="#DB072F" />
<rect x="272" y="144" width="16" height="16" fill="#551826" />
<rect x="0" y="160" width="16" height="16" fill="#6B2C3B" />
<rect x="16" y="160" width="16" height="16" fill="#DB072F" />
<rect x="32" y="160" width="16" height="16" fill="#DB072F" />
<rect x="48" y="160" width="16" height="16" fill="#DB072F" />
<rect x="64" y="160" width="16" height="16" fill="#6B2C3B" />
<rect x="80" y="160" width="16" height="16" fill="#9FC97E" />
<rect x="96" y="160" width="16" height="16" fill="#6B2C3B" />
<rect x="112" y="160" width="16" height="16" fill="#6B2C3B" />
<rect x="128" y="160" width="16" height="16" fill="#6B2C3B" />
<rect x="144" y="160" width="16" height="16" fill="#6B2C3B" />
<rect x="160" y="160" width="16" height="16" fill="#6B2C3B" />
<rect x="176" y="160" width="16" height="16" fill="#6B2C3B" />
<rect x="192" y="160" width="16" height="16" fill="#9FC97E" />
<rect x="208" y="160" width="16" height="16" fill="#551826" />
<rect x="224" y="160" width="16" height="16" fill="#DB072F" />
<rect x="240" y="160" width="16" height="16" fill="#DB072F" />
<rect x="256" y="160" width="16" height="16" fill="#DB072F" />
<rect x="272" y="160" width="16" height="16" fill="#551826" />
<rect x="0" y="176" width="16" height="16" fill="#6B2C3B" />
<rect x="16" y="176" width="16" height="16" fill="#DB072F" />
<rect x="32" y="176" width="16" height="16" fill="#DB072F" />
<rect x="48" y="176" width="16" height="16" fill="#DB072F" />
<rect x="64" y="176" width="16" height="16" fill="#DB072F" />
<rect x="80" y="176" width="16" height="16" fill="#6B2C3B" />
<rect x="96" y="176" width="16" height="16" fill="#FFCEC1" />
<rect x="112" y="176" width="16" height="16" fill="#FC4825" />
<rect x="128" y="176" width="16" height="16" fill="#FC4825" />
<rect x="144" y="176" width="16" height="16" fill="#FFCEC1" />
<rect x="160" y="176" width="16" height="16" fill="#FFCEC1" />
<rect x="176" y="176" width="16" height="16" fill="#FC4825" />
<rect x="192" y="176" width="16" height="16" fill="#6B2C3B" />
<rect x="208" y="176" width="16" height="16" fill="#DB072F" />
<rect x="224" y="176" width="16" height="16" fill="#DB072F" />
<rect x="240" y="176" width="16" height="16" fill="#DB072F" />
<rect x="256" y="176" width="16" height="16" fill="#DB072F" />
<rect x="272" y="176" width="16" height="16" fill="#551826" />
<rect x="0" y="192" width="16" height="16" fill="#6B2C3B" />
<rect x="16" y="192" width="16" height="16" fill="#DB072F" />
<rect x="32" y="192" width="16" height="16" fill="#DB072F" />
<rect x="48" y="192" width="16" height="16" fill="#DB072F" />
<rect x="64" y="192" width="16" height="16" fill="#6B2C3B" />
<rect x="80" y="192" width="16" height="16" fill="#FC4825" />
<rect x="96" y="192" width="16" height="16" fill="#FC4825" />
<rect x="112" y="192" width="16" height="16" fill="#FC4825" />
<rect x="128" y="192" width="16" height="16" fill="#FC4825" />
<rect x="144" y="192" width="16" height="16" fill="#FC4825" />
<rect x="160" y="192" width="16" height="16" fill="#FC4825" />
<rect x="176" y="192" width="16" height="16" fill="#FC4825" />
<rect x="192" y="192" width="16" height="16" fill="#FC4825" />
<rect x="208" y="192" width="16" height="16" fill="#6B2C3B" />
<rect x="224" y="192" width="16" height="16" fill="#DB072F" />
<rect x="240" y="192" width="16" height="16" fill="#DB072F" />
<rect x="256" y="192" width="16" height="16" fill="#DB072F" />
<rect x="272" y="192" width="16" height="16" fill="#551826" />
<rect x="0" y="208" width="16" height="16" fill="#6B2C3B" />
<rect x="16" y="208" width="16" height="16" fill="#DB072F" />
<rect x="32" y="208" width="16" height="16" fill="#DB072F" />
<rect x="48" y="208" width="16" height="16" fill="#551826" />
<rect x="64" y="208" width="16" height="16" fill="#FC4825" />
<rect x="80" y="208" width="16" height="16" fill="#FC4825" />
<rect x="96" y="208" width="16" height="16" fill="#FC4825" />
<rect x="112" y="208" width="16" height="16" fill="#FC4825" />
<rect x="128" y="208" width="16" height="16" fill="#FC4825" />
<rect x="144" y="208" width="16" height="16" fill="#FC4825" />
<rect x="160" y="208" width="16" height="16" fill="#FC4825" />
<rect x="176" y="208" width="16" height="16" fill="#FC4825" />
<rect x="192" y="208" width="16" height="16" fill="#FC4825" />
<rect x="208" y="208" width="16" height="16" fill="#FC4825" />
<rect x="224" y="208" width="16" height="16" fill="#551826" />
<rect x="240" y="208" width="16" height="16" fill="#DB072F" />
<rect x="256" y="208" width="16" height="16" fill="#DB072F" />
<rect x="272" y="208" width="16" height="16" fill="#551826" />
<rect x="0" y="224" width="16" height="16" fill="#6B2C3B" />
<rect x="16" y="224" width="16" height="16" fill="#DB072F" />
<rect x="32" y="224" width="16" height="16" fill="#551826" />
<rect x="48" y="224" width="16" height="16" fill="#DB072F" />
<rect x="64" y="224" width="16" height="16" fill="#FC4825" />
<rect x="80" y="224" width="16" height="16" fill="#FC4825" />
<rect x="96" y="224" width="16" height="16" fill="#FC4825" />
<rect x="112" y="224" width="16" height="16" fill="#FC4825" />
<rect x="128" y="224" width="16" height="16" fill="#FC4825" />
<rect x="144" y="224" width="16" height="16" fill="#FC4825" />
<rect x="160" y="224" width="16" height="16" fill="#FC4825" />
<rect x="176" y="224" width="16" height="16" fill="#FC4825" />
<rect x="192" y="224" width="16" height="16" fill="#FC4825" />
<rect x="208" y="224" width="16" height="16" fill="#FC4825" />
<rect x="224" y="224" width="16" height="16" fill="#DB072F" />
<rect x="240" y="224" width="16" height="16" fill="#551826" />
<rect x="256" y="224" width="16" height="16" fill="#DB072F" />
<rect x="272" y="224" width="16" height="16" fill="#551826" />
<rect x="0" y="240" width="16" height="16" fill="#6B2C3B" />
<rect x="16" y="240" width="16" height="16" fill="#551826" />
<rect x="32" y="240" width="16" height="16" fill="#DB072F" />
<rect x="48" y="240" width="16" height="16" fill="#DB072F" />
<rect x="64" y="240" width="16" height="16" fill="#FC4825" />
<rect x="80" y="240" width="16" height="16" fill="#FC4825" />
<rect x="96" y="240" width="16" height="16" fill="#FC4825" />
<rect x="112" y="240" width="16" height="16" fill="#FC4825" />
<rect x="128" y="240" width="16" height="16" fill="#FC4825" />
<rect x="144" y="240" width="16" height="16" fill="#FC4825" />
<rect x="160" y="240" width="16" height="16" fill="#DB072F" />
<rect x="176" y="240" width="16" height="16" fill="#FC4825" />
<rect x="192" y="240" width="16" height="16" fill="#DB072F" />
<rect x="208" y="240" width="16" height="16" fill="#FC4825" />
<rect x="224" y="240" width="16" height="16" fill="#DB072F" />
<rect x="240" y="240" width="16" height="16" fill="#DB072F" />
<rect x="256" y="240" width="16" height="16" fill="#551826" />
<rect x="272" y="240" width="16" height="16" fill="#551826" />
<rect x="0" y="256" width="16" height="16" fill="#6B2C3B" />
<rect x="16" y="256" width="16" height="16" fill="#DB072F" />
<rect x="32" y="256" width="16" height="16" fill="#DB072F" />
<rect x="48" y="256" width="16" height="16" fill="#DB072F" />
<rect x="64" y="256" width="16" height="16" fill="#DB072F" />
<rect x="80" y="256" width="16" height="16" fill="#DB072F" />
<rect x="96" y="256" width="16" height="16" fill="#DB072F" />
<rect x="112" y="256" width="16" height="16" fill="#DB072F" />
<rect x="128" y="256" width="16" height="16" fill="#DB072F" />
<rect x="144" y="256" width="16" height="16" fill="#DB072F" />
<rect x="160" y="256" width="16" height="16" fill="#DB072F" />
<rect x="176" y="256" width="16" height="16" fill="#DB072F" />
<rect x="192" y="256" width="16" height="16" fill="#DB072F" />
<rect x="208" y="256" width="16" height="16" fill="#DB072F" />
<rect x="224" y="256" width="16" height="16" fill="#DB072F" />
<rect x="240" y="256" width="16" height="16" fill="#DB072F" />
<rect x="256" y="256" width="16" height="16" fill="#DB072F" />
<rect x="272" y="256" width="16" height="16" fill="#551826" />
<rect x="16" y="272" width="16" height="16" fill="#551826" />
<rect x="32" y="272" width="16" height="16" fill="#551826" />
<rect x="48" y="272" width="16" height="16" fill="#551826" />
<rect x="64" y="272" width="16" height="16" fill="#551826" />
<rect x="80" y="272" width="16" height="16" fill="#551826" />
<rect x="96" y="272" width="16" height="16" fill="#551826" />
<rect x="112" y="272" width="16" height="16" fill="#551826" />
<rect x="128" y="272" width="16" height="16" fill="#551826" />
<rect x="144" y="272" width="16" height="16" fill="#551826" />
<rect x="160" y="272" width="16" height="16" fill="#551826" />
<rect x="176" y="272" width="16" height="16" fill="#551826" />
<rect x="192" y="272" width="16" height="16" fill="#551826" />
<rect x="208" y="272" width="16" height="16" fill="#551826" />
<rect x="224" y="272" width="16" height="16" fill="#551826" />
<rect x="240" y="272" width="16" height="16" fill="#551826" />
<rect x="256" y="272" width="16" height="16" fill="#551826" />
</svg>