<?xml version="1.0" standalone="no"?><!DOCTYPE svg PUBLIC "-//W3C//DTD SVG 1.1//EN" "http://www.w3.org/Graphics/SVG/1.1/DTD/svg11.dtd"><svg t="1699970656065" class="icon" viewBox="0 0 1024 1024" version="1.1" xmlns="http://www.w3.org/2000/svg" p-id="5186" xmlns:xlink="http://www.w3.org/1999/xlink" width="200" height="200"><path d="M801.898 177.874H222.102l35.478-100.724a50 50 0 0 1 47.16-33.388h414.52a50 50 0 0 1 47.16 33.388l35.478 100.724z" fill="#A56021" p-id="5187"></path><path d="M384.74 43.762h-80a50 50 0 0 0-47.16 33.388l-35.478 100.724h80l35.478-100.724a49.998 49.998 0 0 1 47.16-33.388z" fill="#8C4C17" p-id="5188"></path><path d="M671.276 980.238H352.724c-31.036 0-56.948-23.668-59.754-54.576l-60.914-671.034h559.886l-60.914 671.034c-2.804 30.908-28.718 54.576-59.752 54.576z" fill="#FFEACF" p-id="5189"></path><path d="M372.97 925.662l-60.914-671.036h-80l60.914 671.036c2.806 30.908 28.718 54.576 59.754 54.576h80c-31.034 0-56.948-23.668-59.754-54.576z" fill="#FFD59A" p-id="5190"></path><path d="M810.92 254.628H213.08c-13.254 0-24-10.746-24-24V181.498c0-13.254 10.746-24 24-24h597.84c13.254 0 24 10.746 24 24v49.13c0 13.254-10.744 24-24 24zM273.556 755.872h476.89c8.086 0 14.844-6.288 15.596-14.514l23.29-254.97c0.858-9.382-6.37-17.486-15.596-17.486H250.266c-9.226 0-16.452 8.104-15.596 17.486l23.29 254.97c0.752 8.224 7.508 14.514 15.596 14.514z" fill="#A56021" p-id="5191"></path><path d="M523.304 611.354m-141.386 0a141.386 141.386 0 1 0 282.772 0 141.386 141.386 0 1 0-282.772 0Z" fill="#DB9C2E" p-id="5192"></path><path d="M269.08 221.498c0-13.254 10.746-24 24-24h541.84v-16c0-13.254-10.746-24-24-24H213.08c-13.254 0-24 10.746-24 24v49.13c0 13.254 10.746 24 24 24h56v-33.13z" fill="#8C4C17" p-id="5193"></path><path d="M728.766 723.668a12.002 12.002 0 0 1-11.966-13.092l18.39-201.334a11.986 11.986 0 0 1 13.042-10.858 12.002 12.002 0 0 1 10.86 13.042l-18.39 201.334a12.004 12.004 0 0 1-11.936 10.908zM754.852 142a12.002 12.002 0 0 1-11.928-10.82c-1.486-15.012-6.984-25.916-16.808-33.334-21.392-16.156-56.72-10.344-57.07-10.28a11.996 11.996 0 0 1-13.94-9.678 12 12 0 0 1 9.678-13.94c1.856-0.334 45.764-7.934 75.796 14.746 15.252 11.518 24.076 28.382 26.226 50.122A12 12 0 0 1 754.852 142z" fill="#BF6C0D" p-id="5194"></path><path d="M735.14 439.914a12 12 0 0 1-11.946-13.288l14.274-132.396a12.012 12.012 0 0 1 13.218-10.644 12 12 0 0 1 10.644 13.218l-14.274 132.396a12.004 12.004 0 0 1-11.916 10.714zM642.338 939.38c-0.692 0-1.384-0.008-2.092-0.026a12 12 0 0 1-11.692-12.3c0.168-6.626 5.716-11.864 12.3-11.692 14.298 0.362 24.29-4.614 30.312-15.222 4.988-8.78 5.464-18.22 5.47-18.314 0.01-0.218 0.028-0.51 0.048-0.728l7.372-73.74a11.99 11.99 0 0 1 13.134-10.746 12 12 0 0 1 10.748 13.134l-7.336 73.37c-0.822 19.9-14.03 56.264-58.264 56.264z" fill="#FCF9DE" p-id="5195"></path><path d="M423.876 826.192m-30 0a30 30 0 1 0 60 0 30 30 0 1 0-60 0Z" fill="#FFD59A" p-id="5196"></path><path d="M488.414 904.718m-30 0a30 30 0 1 0 60 0 30 30 0 1 0-60 0Z" fill="#FFD59A" p-id="5197"></path><path d="M381.92 102.228m-30 0a30 30 0 1 0 60 0 30 30 0 1 0-60 0Z" fill="#8C4C17" p-id="5198"></path><path d="M357.96 741.358l-23.29-254.97c-0.856-9.382 6.37-17.486 15.596-17.486h-100c-9.226 0-16.452 8.104-15.596 17.486l23.29 254.97c0.75 8.226 7.508 14.514 15.596 14.514h100c-8.088 0-14.846-6.288-15.596-14.514z" fill="#8C4C17" p-id="5199"></path></svg>