<svg version="1.1" id="Layer_1" xmlns="http://www.w3.org/2000/svg" xmlns:xlink="http://www.w3.org/1999/xlink" x="0px" y="0px"
	 width="100%" viewBox="0 0 512 512" enable-background="new 0 0 512 512" xml:space="preserve">
<path fill="#B9DCFF" opacity="1.000000" stroke="none" 
	d="
M237.491058,149.193802 
	C244.211716,148.349136 250.543304,147.058090 256.863953,147.109528 
	C281.009186,147.305923 301.672729,156.188583 317.626526,174.330612 
	C330.016693,188.420197 336.468903,205.078064 337.174957,224.233002 
	C337.928802,244.684662 332.385712,262.872345 319.672394,278.511536 
	C308.030640,292.832520 293.052612,302.293335 274.560364,306.120056 
	C258.759552,309.389893 243.355545,308.766663 228.457733,302.909058 
	C200.965881,292.099731 183.730698,272.092468 178.126602,242.997467 
	C174.525620,224.302063 176.699097,205.886734 186.062073,189.055084 
	C196.373108,170.519165 211.599808,157.463135 232.097168,151.019302 
	C233.771729,150.492859 235.430740,149.916901 237.491058,149.193802 
z"/>
<path fill="#2E58FF" opacity="1.000000" stroke="none" 
	d="
M218.212006,40.043404 
	C206.351410,43.717834 194.727356,46.848038 183.541901,51.125195 
	C167.644012,57.204311 152.999832,65.789558 139.911652,76.712624 
	C131.804428,83.478729 123.864586,90.535530 116.532135,98.121552 
	C99.989830,115.235931 87.308846,135.087296 79.227570,157.414352 
	C74.112419,171.546539 69.891205,186.224869 67.382507,201.016693 
	C64.755661,216.505142 65.344238,232.380539 66.824989,248.172302 
	C68.531616,266.372955 73.300865,283.694366 80.050926,300.525757 
	C86.821915,317.409302 96.274681,332.743744 107.492592,347.076019 
	C119.262238,362.113220 133.330490,374.555725 148.884750,385.469269 
	C153.338730,388.594421 154.337280,394.075684 151.451187,398.029144 
	C148.932129,401.479828 143.072205,402.304413 139.083954,399.613220 
	C122.037727,388.110748 107.399513,374.107788 94.432701,358.110779 
	C77.776558,337.562347 65.300095,314.846710 58.050358,289.515167 
	C54.396843,276.749268 51.716480,263.546783 50.248291,250.357819 
	C48.767582,237.056396 48.269268,223.449997 49.238060,210.115082 
	C50.897476,187.274261 56.785755,165.300125 65.874863,144.146164 
	C73.734520,125.853622 84.305138,109.294937 96.735291,93.945557 
	C107.336929,80.854111 119.868721,69.718567 133.503479,59.692585 
	C153.025085,45.337860 174.252609,34.699238 197.443512,27.865736 
	C211.886490,23.609924 226.530243,20.491941 241.649124,19.984022 
	C248.917068,19.739853 256.206573,18.761087 263.439667,19.102568 
	C289.534546,20.334534 314.756256,25.504131 338.921570,35.878960 
	C357.973358,44.058422 375.598846,54.547089 391.174194,68.017899 
	C401.602600,77.037193 411.502502,87.023422 419.935028,97.898170 
	C429.061096,109.667397 436.926270,122.581917 444.041870,135.701721 
	C453.789764,153.675110 460.041199,173.253189 462.650360,193.430389 
	C464.868896,210.586792 465.670685,228.180313 464.656311,245.436844 
	C463.375092,267.232300 457.862732,288.392120 449.149048,308.647644 
	C440.494232,328.766266 429.222015,347.092316 414.927643,363.700989 
	C403.138428,377.398926 390.043915,389.531433 374.984863,399.492462 
	C370.601807,402.391663 364.733704,401.661865 362.300995,397.752350 
	C359.744781,393.644379 361.102570,388.632019 365.365967,385.186981 
	C375.056946,377.356201 385.294464,370.016724 393.981415,361.172729 
	C406.353577,348.576935 416.679108,334.290588 425.244751,318.641266 
	C436.413086,298.236908 443.656006,276.560394 446.704742,253.745285 
	C449.084808,235.934235 448.851501,217.919891 446.232666,199.894669 
	C442.955109,177.335602 436.201477,156.055023 424.894043,136.427185 
	C418.494385,125.318436 410.840851,114.850533 403.001648,104.671959 
	C391.657623,89.942665 377.619629,77.855011 362.096039,67.770844 
	C339.651489,53.190807 315.376282,42.663082 288.636383,39.113831 
	C275.612732,37.385166 262.407288,36.194057 249.291489,36.258301 
	C239.069901,36.308372 228.859665,38.674461 218.212006,40.043404 
z"/>
<path fill="#2E58FF" opacity="1.000000" stroke="none" 
	d="
M323.656799,90.269897 
	C336.909058,97.257210 348.898682,105.245949 359.811523,115.121269 
	C384.668762,137.615219 399.931885,165.550140 406.693329,197.925201 
	C410.473236,216.024292 410.165955,234.555878 407.167725,253.026749 
	C403.278198,276.988647 394.053558,298.598206 379.924377,318.125549 
	C367.342072,335.515015 351.435211,349.352814 332.813812,360.024933 
	C329.049896,362.182037 324.473694,361.014313 321.917297,357.340881 
	C319.376526,353.689819 319.381042,349.763672 322.789673,346.870728 
	C326.743103,343.515411 331.343750,340.936737 335.502472,337.807007 
	C363.045624,317.078766 381.516968,290.520660 389.208862,256.479645 
	C392.363953,242.516510 392.811768,228.517120 391.745270,214.620895 
	C390.157745,193.936676 383.405548,174.559219 372.333069,156.854843 
	C357.112244,132.517380 336.348846,114.495125 310.041412,103.080185 
	C296.833862,97.349350 282.976685,94.252251 268.521912,92.791878 
	C248.993362,90.818901 230.304276,93.581398 212.079391,100.018272 
	C188.732544,108.264168 169.131241,121.934113 153.203781,141.123642 
	C139.937943,157.106430 130.603714,174.911163 125.559639,194.956802 
	C121.375542,211.584854 120.996574,228.455002 122.933449,245.466644 
	C125.883430,271.376160 136.558350,294.047668 152.771881,313.942871 
	C162.495316,325.874298 174.091171,336.210724 187.672470,343.962280 
	C191.530441,346.164246 194.596954,349.059601 193.424500,354.073517 
	C192.362091,358.616852 189.379654,361.102509 184.601440,360.953125 
	C183.349396,360.914001 181.968597,360.565155 180.893799,359.936523 
	C157.044632,345.986816 138.145844,327.198425 124.444855,303.069550 
	C116.329445,288.777466 110.608055,273.660583 107.416481,257.656036 
	C104.202667,241.539978 104.335136,225.239609 105.852791,208.867844 
	C107.409904,192.070480 112.468864,176.282761 119.575180,161.273743 
	C124.068268,151.784012 130.046600,142.850510 136.328659,134.387482 
	C147.173553,119.777489 160.733475,107.945427 176.188354,98.242485 
	C192.242828,88.163086 209.502762,81.147629 228.165390,78.122871 
	C238.832275,76.394028 249.729721,75.043732 260.497314,75.210075 
	C279.528809,75.504066 298.080353,79.203926 315.659393,86.924934 
	C318.189270,88.036102 320.775269,89.019470 323.656799,90.269897 
z"/>
<path fill="#B9DCFF" opacity="1.000000" stroke="none" 
	d="
M320.998657,451.444763 
	C321.332153,459.790039 321.448883,467.632416 316.784241,474.604614 
	C311.166260,483.001648 303.929840,488.912018 293.331268,488.963135 
	C269.165619,489.079712 244.996948,488.810791 220.833542,489.071777 
	C206.650436,489.224976 193.900650,474.282440 192.754593,461.019653 
	C191.577682,447.399994 198.836761,437.892731 205.661560,427.875854 
	C214.680817,414.638062 223.783920,401.455963 232.989136,388.346924 
	C238.170303,380.968445 245.546814,377.663635 254.475891,376.919952 
	C263.104553,376.201294 271.009094,378.224274 277.116364,383.966583 
	C282.012970,388.570679 285.657654,394.567108 289.563721,400.151459 
	C298.361115,412.728729 307.158661,425.314301 315.553558,438.159576 
	C318.055237,441.987457 319.220123,446.688965 320.998657,451.444763 
z"/>
</svg>