<?xml version="1.0" encoding="UTF-8" ?>
<svg version="1.1" width="272" height="224" xmlns="http://www.w3.org/2000/svg" shape-rendering="crispEdges">
<rect x="96" y="0" width="16" height="16" fill="#6B2C3B" />
<rect x="112" y="0" width="16" height="16" fill="#6B2C3B" />
<rect x="128" y="0" width="16" height="16" fill="#6B2C3B" />
<rect x="144" y="0" width="16" height="16" fill="#6B2C3B" />
<rect x="160" y="0" width="16" height="16" fill="#6B2C3B" />
<rect x="64" y="16" width="16" height="16" fill="#6B2C3B" />
<rect x="80" y="16" width="16" height="16" fill="#6B2C3B" />
<rect x="96" y="16" width="16" height="16" fill="#F5EEE4" />
<rect x="112" y="16" width="16" height="16" fill="#F5EEE4" />
<rect x="128" y="16" width="16" height="16" fill="#FEBFDF" />
<rect x="144" y="16" width="16" height="16" fill="#F5EEE4" />
<rect x="160" y="16" width="16" height="16" fill="#FEBFDF" />
<rect x="176" y="16" width="16" height="16" fill="#6B2C3B" />
<rect x="192" y="16" width="16" height="16" fill="#6B2C3B" />
<rect x="16" y="32" width="16" height="16" fill="#6B2C3B" />
<rect x="48" y="32" width="16" height="16" fill="#6B2C3B" />
<rect x="64" y="32" width="16" height="16" fill="#FEBFDF" />
<rect x="80" y="32" width="16" height="16" fill="#FEBFDF" />
<rect x="96" y="32" width="16" height="16" fill="#FEBFDF" />
<rect x="112" y="32" width="16" height="16" fill="#FEBFDF" />
<rect x="128" y="32" width="16" height="16" fill="#FEBFDF" />
<rect x="144" y="32" width="16" height="16" fill="#FEBFDF" />
<rect x="160" y="32" width="16" height="16" fill="#FEBFDF" />
<rect x="176" y="32" width="16" height="16" fill="#FEBFDF" />
<rect x="192" y="32" width="16" height="16" fill="#FEBFDF" />
<rect x="208" y="32" width="16" height="16" fill="#6B2C3B" />
<rect x="240" y="32" width="16" height="16" fill="#6B2C3B" />
<rect x="0" y="48" width="16" height="16" fill="#6B2C3B" />
<rect x="16" y="48" width="16" height="16" fill="#F5EEE4" />
<rect x="32" y="48" width="16" height="16" fill="#6B2C3B" />
<rect x="48" y="48" width="16" height="16" fill="#FD95CE" />
<rect x="64" y="48" width="16" height="16" fill="#FEBFDF" />
<rect x="80" y="48" width="16" height="16" fill="#6B2C3B" />
<rect x="96" y="48" width="16" height="16" fill="#6B2C3B" />
<rect x="112" y="48" width="16" height="16" fill="#FEBFDF" />
<rect x="128" y="48" width="16" height="16" fill="#FEBFDF" />
<rect x="144" y="48" width="16" height="16" fill="#FEBFDF" />
<rect x="160" y="48" width="16" height="16" fill="#6B2C3B" />
<rect x="176" y="48" width="16" height="16" fill="#6B2C3B" />
<rect x="192" y="48" width="16" height="16" fill="#FEBFDF" />
<rect x="208" y="48" width="16" height="16" fill="#FD95CE" />
<rect x="224" y="48" width="16" height="16" fill="#6B2C3B" />
<rect x="240" y="48" width="16" height="16" fill="#F5EEE4" />
<rect x="256" y="48" width="16" height="16" fill="#6B2C3B" />
<rect x="0" y="64" width="16" height="16" fill="#6B2C3B" />
<rect x="16" y="64" width="16" height="16" fill="#FEBFDF" />
<rect x="32" y="64" width="16" height="16" fill="#FD95CE" />
<rect x="48" y="64" width="16" height="16" fill="#FD95CE" />
<rect x="64" y="64" width="16" height="16" fill="#6B2C3B" />
<rect x="80" y="64" width="16" height="16" fill="#FEBFDF" />
<rect x="96" y="64" width="16" height="16" fill="#FEBFDF" />
<rect x="112" y="64" width="16" height="16" fill="#FEBFDF" />
<rect x="128" y="64" width="16" height="16" fill="#FEBFDF" />
<rect x="144" y="64" width="16" height="16" fill="#FEBFDF" />
<rect x="160" y="64" width="16" height="16" fill="#FEBFDF" />
<rect x="176" y="64" width="16" height="16" fill="#FEBFDF" />
<rect x="192" y="64" width="16" height="16" fill="#6B2C3B" />
<rect x="208" y="64" width="16" height="16" fill="#FD95CE" />
<rect x="224" y="64" width="16" height="16" fill="#FD95CE" />
<rect x="240" y="64" width="16" height="16" fill="#FEBFDF" />
<rect x="256" y="64" width="16" height="16" fill="#6B2C3B" />
<rect x="0" y="80" width="16" height="16" fill="#6B2C3B" />
<rect x="16" y="80" width="16" height="16" fill="#FEBFDF" />
<rect x="32" y="80" width="16" height="16" fill="#FEBFDF" />
<rect x="48" y="80" width="16" height="16" fill="#FEBFDF" />
<rect x="64" y="80" width="16" height="16" fill="#FEBFDF" />
<rect x="80" y="80" width="16" height="16" fill="#551826" />
<rect x="96" y="80" width="16" height="16" fill="#551826" />
<rect x="112" y="80" width="16" height="16" fill="#FEBFDF" />
<rect x="128" y="80" width="16" height="16" fill="#FEBFDF" />
<rect x="144" y="80" width="16" height="16" fill="#FEBFDF" />
<rect x="160" y="80" width="16" height="16" fill="#551826" />
<rect x="176" y="80" width="16" height="16" fill="#551826" />
<rect x="192" y="80" width="16" height="16" fill="#FEBFDF" />
<rect x="208" y="80" width="16" height="16" fill="#FEBFDF" />
<rect x="224" y="80" width="16" height="16" fill="#FEBFDF" />
<rect x="240" y="80" width="16" height="16" fill="#FEBFDF" />
<rect x="256" y="80" width="16" height="16" fill="#6B2C3B" />
<rect x="0" y="96" width="16" height="16" fill="#6B2C3B" />
<rect x="16" y="96" width="16" height="16" fill="#FD95CE" />
<rect x="32" y="96" width="16" height="16" fill="#FEBFDF" />
<rect x="48" y="96" width="16" height="16" fill="#FC4825" />
<rect x="64" y="96" width="16" height="16" fill="#FC4825" />
<rect x="80" y="96" width="16" height="16" fill="#FEBFDF" />
<rect x="96" y="96" width="16" height="16" fill="#FEBFDF" />
<rect x="112" y="96" width="16" height="16" fill="#FEBFDF" />
<rect x="128" y="96" width="16" height="16" fill="#FEBFDF" />
<rect x="144" y="96" width="16" height="16" fill="#FEBFDF" />
<rect x="160" y="96" width="16" height="16" fill="#FEBFDF" />
<rect x="176" y="96" width="16" height="16" fill="#FEBFDF" />
<rect x="192" y="96" width="16" height="16" fill="#FC4825" />
<rect x="208" y="96" width="16" height="16" fill="#FC4825" />
<rect x="224" y="96" width="16" height="16" fill="#FEBFDF" />
<rect x="240" y="96" width="16" height="16" fill="#FD95CE" />
<rect x="256" y="96" width="16" height="16" fill="#6B2C3B" />
<rect x="16" y="112" width="16" height="16" fill="#6B2C3B" />
<rect x="32" y="112" width="16" height="16" fill="#FD95CE" />
<rect x="48" y="112" width="16" height="16" fill="#FC4825" />
<rect x="64" y="112" width="16" height="16" fill="#FC4825" />
<rect x="80" y="112" width="16" height="16" fill="#FEBFDF" />
<rect x="96" y="112" width="16" height="16" fill="#FEBFDF" />
<rect x="112" y="112" width="16" height="16" fill="#FEBFDF" />
<rect x="128" y="112" width="16" height="16" fill="#FEBFDF" />
<rect x="144" y="112" width="16" height="16" fill="#FEBFDF" />
<rect x="160" y="112" width="16" height="16" fill="#FEBFDF" />
<rect x="176" y="112" width="16" height="16" fill="#FEBFDF" />
<rect x="192" y="112" width="16" height="16" fill="#FC4825" />
<rect x="208" y="112" width="16" height="16" fill="#FC4825" />
<rect x="224" y="112" width="16" height="16" fill="#FD95CE" />
<rect x="240" y="112" width="16" height="16" fill="#551826" />
<rect x="16" y="128" width="16" height="16" fill="#6B2C3B" />
<rect x="32" y="128" width="16" height="16" fill="#FD95CE" />
<rect x="48" y="128" width="16" height="16" fill="#FEBFDF" />
<rect x="64" y="128" width="16" height="16" fill="#6B2C3B" />
<rect x="80" y="128" width="16" height="16" fill="#6B2C3B" />
<rect x="96" y="128" width="16" height="16" fill="#6B2C3B" />
<rect x="112" y="128" width="16" height="16" fill="#6B2C3B" />
<rect x="128" y="128" width="16" height="16" fill="#6B2C3B" />
<rect x="144" y="128" width="16" height="16" fill="#6B2C3B" />
<rect x="160" y="128" width="16" height="16" fill="#6B2C3B" />
<rect x="176" y="128" width="16" height="16" fill="#6B2C3B" />
<rect x="192" y="128" width="16" height="16" fill="#6B2C3B" />
<rect x="208" y="128" width="16" height="16" fill="#FEBFDF" />
<rect x="224" y="128" width="16" height="16" fill="#FD95CE" />
<rect x="240" y="128" width="16" height="16" fill="#551826" />
<rect x="16" y="144" width="16" height="16" fill="#6B2C3B" />
<rect x="32" y="144" width="16" height="16" fill="#FD95CE" />
<rect x="48" y="144" width="16" height="16" fill="#FEBFDF" />
<rect x="64" y="144" width="16" height="16" fill="#FEBFDF" />
<rect x="80" y="144" width="16" height="16" fill="#6B2C3B" />
<rect x="96" y="144" width="16" height="16" fill="#DB072F" />
<rect x="112" y="144" width="16" height="16" fill="#DB072F" />
<rect x="128" y="144" width="16" height="16" fill="#DB072F" />
<rect x="144" y="144" width="16" height="16" fill="#DB072F" />
<rect x="160" y="144" width="16" height="16" fill="#DB072F" />
<rect x="176" y="144" width="16" height="16" fill="#6B2C3B" />
<rect x="192" y="144" width="16" height="16" fill="#FEBFDF" />
<rect x="208" y="144" width="16" height="16" fill="#FEBFDF" />
<rect x="224" y="144" width="16" height="16" fill="#FD95CE" />
<rect x="240" y="144" width="16" height="16" fill="#551826" />
<rect x="16" y="160" width="16" height="16" fill="#6B2C3B" />
<rect x="32" y="160" width="16" height="16" fill="#FD95CE" />
<rect x="48" y="160" width="16" height="16" fill="#FD95CE" />
<rect x="64" y="160" width="16" height="16" fill="#FEBFDF" />
<rect x="80" y="160" width="16" height="16" fill="#FEBFDF" />
<rect x="96" y="160" width="16" height="16" fill="#6B2C3B" />
<rect x="112" y="160" width="16" height="16" fill="#6B2C3B" />
<rect x="128" y="160" width="16" height="16" fill="#6B2C3B" />
<rect x="144" y="160" width="16" height="16" fill="#6B2C3B" />
<rect x="160" y="160" width="16" height="16" fill="#6B2C3B" />
<rect x="176" y="160" width="16" height="16" fill="#FEBFDF" />
<rect x="192" y="160" width="16" height="16" fill="#FEBFDF" />
<rect x="208" y="160" width="16" height="16" fill="#FD95CE" />
<rect x="224" y="160" width="16" height="16" fill="#FD95CE" />
<rect x="240" y="160" width="16" height="16" fill="#551826" />
<rect x="32" y="176" width="16" height="16" fill="#551826" />
<rect x="48" y="176" width="16" height="16" fill="#FD95CE" />
<rect x="64" y="176" width="16" height="16" fill="#FD95CE" />
<rect x="80" y="176" width="16" height="16" fill="#FEBFDF" />
<rect x="96" y="176" width="16" height="16" fill="#FEBFDF" />
<rect x="112" y="176" width="16" height="16" fill="#FEBFDF" />
<rect x="128" y="176" width="16" height="16" fill="#FEBFDF" />
<rect x="144" y="176" width="16" height="16" fill="#FEBFDF" />
<rect x="160" y="176" width="16" height="16" fill="#FEBFDF" />
<rect x="176" y="176" width="16" height="16" fill="#FEBFDF" />
<rect x="192" y="176" width="16" height="16" fill="#FD95CE" />
<rect x="208" y="176" width="16" height="16" fill="#FD95CE" />
<rect x="224" y="176" width="16" height="16" fill="#551826" />
<rect x="48" y="192" width="16" height="16" fill="#551826" />
<rect x="64" y="192" width="16" height="16" fill="#551826" />
<rect x="80" y="192" width="16" height="16" fill="#FD95CE" />
<rect x="96" y="192" width="16" height="16" fill="#FD95CE" />
<rect x="112" y="192" width="16" height="16" fill="#FD95CE" />
<rect x="128" y="192" width="16" height="16" fill="#FD95CE" />
<rect x="144" y="192" width="16" height="16" fill="#FD95CE" />
<rect x="160" y="192" width="16" height="16" fill="#FD95CE" />
<rect x="176" y="192" width="16" height="16" fill="#FD95CE" />
<rect x="192" y="192" width="16" height="16" fill="#551826" />
<rect x="208" y="192" width="16" height="16" fill="#551826" />
<rect x="80" y="208" width="16" height="16" fill="#551826" />
<rect x="96" y="208" width="16" height="16" fill="#551826" />
<rect x="112" y="208" width="16" height="16" fill="#551826" />
<rect x="128" y="208" width="16" height="16" fill="#551826" />
<rect x="144" y="208" width="16" height="16" fill="#551826" />
<rect x="160" y="208" width="16" height="16" fill="#551826" />
<rect x="176" y="208" width="16" height="16" fill="#551826" />
</svg>